<svg width="24" height="24" viewBox="0 0 92 87" fill="none" xmlns="http://www.w3.org/2000/svg">
<path d="M36.4254 32.3217L46 2.8541L55.5746 32.3217C55.9093 33.3517 56.8692 34.0491 57.9522 34.0491H88.9363L63.8697 52.2611C62.9935 52.8977 62.6268 54.0261 62.9615 55.0562L72.5361 84.5238L47.4695 66.3118C46.5933 65.6752 45.4068 65.6752 44.5305 66.3118L19.4639 84.5238L29.0385 55.0562C29.3732 54.0262 29.0065 52.8977 28.1303 52.2611L3.0637 34.0491H34.0478C35.1308 34.0491 36.0907 33.3517 36.4254 32.3217ZM90.1813 33.1446L90.1797 33.1457L90.1813 33.1446ZM73.0116 85.9873C73.0115 85.9868 73.0113 85.9863 73.0111 85.9858L73.0116 85.9873ZM73.7792 85.427C73.7798 85.4274 73.7804 85.4279 73.7811 85.4283L73.7792 85.427Z" fill="white" stroke="#FFD700" stroke-width="3"/>
</svg>
